/* XPM */
static char *bitcoin16_xpm[] = {
/* width height num_colors chars_per_pixel */
"    16    16      256            2",
/* colors */
"`` c #ffffff",
"`. c #fefefe",
"`# c #fdfefe",
"`a c #cddaf5",
"`b c #ccd9f5",
"`c c #fdfdfe",
"`d c #dfe7f9",
"`e c #85a4e9",
"`f c #5883e1",
"`g c #5782e0",
"`h c #84a4e8",
"`i c #dde6f8",
"`j c #f2f6fc",
"`k c #adc2f0",
"`l c #6c93e4",
"`m c #7b9de7",
"`n c #8ba9e9",
"`o c #8aa8ea",
"`p c #6a91e4",
"`q c #6a91e3",
"`r c #abc1ef",
"`s c #f1f5fc",
"`t c #ccdaf6",
"`u c #89a8e9",
"`v c #81a1e8",
"`w c #93afec",
"`x c #85a5e9",
"`y c #5782e1",
"`z c #799be6",
"`A c #7499e6",
"`B c #a8bfef",
"`C c #87a7e9",
"`D c #87a5e8",
"`E c #cbd9f6",
"`F c #fcfdfe",
"`G c #c3d2f0",
"`H c #7e9fe6",
"`I c #a3bcf0",
"`J c #9ab4ed",
"`K c #7398e5",
"`L c #668ee3",
"`M c #638be2",
"`N c #7ea0e7",
"`O c #799de7",
"`P c #799ce6",
"`Q c #a4bdf1",
"`R c #7e9fe5",
"`S c #c0ceed",
"`T c #a4b5e1",
"`U c #597ccd",
"`V c #8aa6e3",
"`W c #6e94e5",
"`X c #6a91e6",
"`Y c #7799e7",
"`Z c #7498e6",
"`0 c #81a1e7",
"`1 c #99b3ec",
"`2 c #5f8ae4",
"`3 c #7096e5",
"`4 c #8aa3e0",
"`5 c #5d77c8",
"`6 c #a1aede",
"`7 c #a8b5de",
"`8 c #5a75c4",
".` c #5373c6",
".. c #86a0dc",
".# c #7094e2",
".a c #7196e6",
".b c #779ae7",
".c c #7397e6",
".d c #97b3ed",
".e c #7e9ce3",
".f c #879bda",
".g c #566cc3",
".h c #6272c8",
".i c #a8b0e0",
".j c #a6b0d9",
".k c #596dbb",
".l c #5870c0",
".m c #7e92d0",
".n c #718cd1",
".o c #577bcf",
".p c #769ae5",
".q c #6e91e1",
".r c #798fd6",
".s c #8e9bd7",
".t c #727fcd",
".u c #6571c8",
".v c #676dc8",
".w c #a9acdf",
".x c #a6abd4",
".y c #5764b2",
".z c #5c6cb9",
".A c #6578c0",
".B c #768acb",
".C c #5c76c4",
".D c #617dcb",
".E c #687acc",
".F c #616cc5",
".G c #5660c3",
".H c #7378cc",
".I c #696bc8",
".J c #6b68c7",
".K c #ada9df",
".L c #a5a7d0",
".M c #565aa9",
".N c #5963af",
".O c #6874ba",
".P c #5c6bb9",
".Q c #7b8bc9",
".R c #5a6fbf",
".S c #6c74c9",
".T c #6567c7",
".U c #5453bf",
".V c #7d79ce",
".W c #6c64c7",
".X c #6e61c7",
".Y c #afa6df",
".Z c #a5a2cb",
".0 c #5856a2",
".1 c #5d5fa9",
".2 c #44499e",
".3 c #404aa3",
".4 c #8891c8",
".5 c #6774be",
".6 c #6f6ec8",
".7 c #5a4dbf",
".8 c #5e4cc0",
"#` c #7462c8",
"#. c #7660c8",
"## c #b1a4df",
"#a c #a7a1c8",
"#b c #40358b",
"#c c #7a78b2",
"#d c #5b5ba4",
"#e c #343692",
"#f c #696db1",
"#g c #7379bc",
"#h c #685fc3",
"#i c #6956c5",
"#j c #5840bd",
"#k c #765fc8",
"#l c #937ed2",
"#m c #6642c0",
"#n c #b5a3e0",
"#o c #e5e2ee",
"#p c #63559a",
"#q c #423387",
"#r c #6a61a4",
"#s c #9794c3",
"#t c #514f9d",
"#u c #6362ac",
"#v c #5238b7",
"#w c #6f54c6",
"#x c #8d75d0",
"#y c #8565cb",
"#z c #6a40c0",
"#A c #845dc9",
"#B c #e9e2f5",
"#C c #fcfcfd",
"#D c #bab4d2",
"#E c #544490",
"#F c #4e3f8f",
"#G c #4d4392",
"#H c #7772b1",
"#I c #8169c9",
"#J c #8f6fd0",
"#K c #7146c2",
"#L c #774bc3",
"#M c #c8b5e7",
"#N c #fdfcfe",
"#O c #f3f1f7",
"#P c #9a90bd",
"#Q c #463686",
"#R c #544593",
"#S c #7b52c4",
"#T c #6e3cc1",
"#U c #b095dc",
"#V c #f4f1fa",
"#W c #fefdfe",
"#X c #e0ddea",
"#Y c #6c5da0",
"#Z c #8762c8",
"#0 c #e6def4",
"#1 c #000000",
"#2 c #000000",
"#3 c #000000",
"#4 c #000000",
"#5 c #000000",
"#6 c #000000",
"#7 c #000000",
"#8 c #000000",
"a` c #000000",
"a. c #000000",
"a# c #000000",
"aa c #000000",
"ab c #000000",
"ac c #000000",
"ad c #000000",
"ae c #000000",
"af c #000000",
"ag c #000000",
"ah c #000000",
"ai c #000000",
"aj c #000000",
"ak c #000000",
"al c #000000",
"am c #000000",
"an c #000000",
"ao c #000000",
"ap c #000000",
"aq c #000000",
"ar c #000000",
"as c #000000",
"at c #000000",
"au c #000000",
"av c #000000",
"aw c #000000",
"ax c #000000",
"ay c #000000",
"az c #000000",
"aA c #000000",
"aB c #000000",
"aC c #000000",
"aD c #000000",
"aE c #000000",
"aF c #000000",
"aG c #000000",
"aH c #000000",
"aI c #000000",
"aJ c #000000",
"aK c #000000",
"aL c #000000",
"aM c #000000",
"aN c #000000",
"aO c #000000",
"aP c #000000",
"aQ c #000000",
"aR c #000000",
"aS c #000000",
"aT c #000000",
"aU c #000000",
"aV c #000000",
"aW c #000000",
"aX c #000000",
"aY c #000000",
"aZ c #000000",
"a0 c #000000",
"a1 c #000000",
"a2 c #000000",
"a3 c #000000",
"a4 c #000000",
"a5 c #000000",
"a6 c #000000",
"a7 c #000000",
"a8 c #000000",
/* pixels */
"```````.`#```.`a`b`.```#`.``````",
"```.`c`.```d`e`f`g`h`i```.`c`.``",
"```.```j`k`l`m`n`o`p`q`r`s```.``",
"```c`t`u`v`w`x`y`z`A`B`C`D`E`F``",
"```G`H`I`J`K`L`M`N`O`P`J`Q`R`S``",
"```T`U`V`W`X`Y`Z`0`1`2`3`4`5`6``",
"```7`8.`...#.a.b.c.d.e.f.g.h.i``",
"``.j.k.l.m.n.o.p.q.r.s.t.u.v.w``",
"``.x.y.z.A.B.C.D.E.F.G.H.I.J.K``",
"``.L.M.N.O.P.Q.R.S.T.U.V.W.X.Y``",
"``.Z.0.1.2.3.4.5.6.W.7.8#`#.##``",
"``#a#b#c#d#e#f#g#h#i#j#k#l#m#n``",
"``#o#p#q#r#s#t#u#v#w#x#y#z#A#B``",
"````#C#D#E#F#G#H#I#J#K#L#M#N````",
"```c#C``#O#P#Q#R#S#T#U#V``#N#W``",
"``````#C`.``#X#Y#Z#0```.#N`.````"
};
