/* XPM */
static char *bitcoin32_xpm[] = {
/* width height num_colors chars_per_pixel */
"    32    32      256            2",
/* colors */
"`` c #34267c",
"`. c #6c96e4",
"`# c #345ec4",
"`a c #5c32bc",
"`b c #7466a4",
"`c c #bccef4",
"`d c #a496dc",
"`e c #2c42a4",
"`f c #4c7adc",
"`g c #44429c",
"`h c #8caaec",
"`i c #747acc",
"`j c #5466b4",
"`k c #8c96cc",
"`l c #5c4a94",
"`m c #4452ac",
"`n c #a4b6dc",
"`o c #5c8ae4",
"`p c #e4eaf4",
"`q c #546ec4",
"`r c #34368c",
"`s c #947ed4",
"`t c #8ca2dc",
"`u c #647ac4",
"`v c #4c42bc",
"`w c #7472b4",
"`x c #744ac4",
"`y c #c4b6e4",
"`z c #5c3abc",
"`A c #d4d6ec",
"`B c #3452b4",
"`C c #7ca2e9",
"`D c #445eb9",
"`E c #9c96c4",
"`F c #5c5aa4",
"`G c #acc2ef",
"`H c #646eb7",
"`I c #7c8ecc",
"`J c #5452a4",
"`K c #a4a6d1",
"`L c #d4e0f4",
"`M c #342e8c",
"`N c #5482e2",
"`O c #4c3a8c",
"`P c #6c3abe",
"`Q c #444aa1",
"`R c #645ea4",
"`S c #f4f8fc",
"`T c #8c70cc",
"`U c #7c9adc",
"`V c #344aa4",
"`W c #9cb6ee",
"`X c #445aba",
"`Y c #6483d4",
"`Z c #444dbc",
"`0 c #4466c4",
"`1 c #6476cc",
"`2 c #8460cc",
"`3 c #8c9ed4",
"`4 c #5c46bc",
"`5 c #443689",
"`6 c #948ec4",
"`7 c #8c8abc",
"`8 c #e4def2",
".` c #b4b6dc",
".. c #9ca2dc",
".# c #7470cc",
".a c #b4a3e4",
".b c #443184",
".c c #6468ac",
".d c #6c46c4",
".e c #9cb2e8",
".f c #8c96d4",
".g c #6c8ad4",
".h c #f4f2f8",
".i c #343e9c",
".j c #8ca6ec",
".k c #6c7ac9",
".l c #3c5ab9",
".m c #bccaf4",
".n c #646ec4",
".o c #7c9ae4",
".p c #5c4ec4",
".q c #3c429c",
".r c #5c7aca",
".s c #4c54bc",
".t c #a4beef",
".u c #94a2da",
".v c #5c42bc",
".w c #4c5eb4",
".x c #9c9ec4",
".y c #5c54c4",
".z c #b4caf4",
".A c #3c2e84",
".B c #5c82e3",
".C c #6c42c4",
".D c #544d9c",
".E c #544cbc",
".F c #3c66c4",
".G c #5c36bc",
".H c #b496dc",
".I c #54428c",
".J c #94b2ec",
".K c #8484bc",
".L c #ecf2fc",
".M c #5476c8",
".N c #7c5ac4",
".O c #3c52ac",
".P c #84a2dc",
".Q c #4462c4",
".R c #b4c6f2",
".S c #6c72b4",
".T c #8492cc",
".U c #8466cc",
".V c #644ac2",
".W c #a492dc",
".X c #e4e6f4",
".Y c #8476cc",
".Z c #646ac4",
".0 c #3c2984",
".1 c #3c5ebc",
".2 c #745ec4",
".3 c #ccd6ec",
".4 c #a49edc",
".5 c #547ad1",
".6 c #4c4290",
".7 c #94aadc",
".8 c #9496c4",
"#` c #4454bc",
"#. c #cccae0",
"## c #543bbc",
"#a c #9c86d4",
"#b c #7c6acc",
"#c c #5452bc",
"#d c #6c61c4",
"#e c #8c92c8",
"#f c #dcdaec",
"#g c #9492d4",
"#h c #7452c4",
"#i c #dce6f4",
"#j c #fcfefc",
"#k c #7476cc",
"#l c #b4aae4",
"#m c #6c92e4",
"#n c #5c5ac4",
"#o c #9c97dc",
"#p c #3c368c",
"#q c #7c6ea4",
"#r c #dcd6e4",
"#s c #8496d1",
"#t c #4c66bc",
"#u c #d4c6ec",
"#v c #545aac",
"#w c #545ac4",
"#x c #9c9edc",
"#y c #4c5ac0",
"#z c #6c76bc",
"#A c #acbee8",
"#B c #642eb4",
"#C c #648ae3",
"#D c #eceaf4",
"#E c #848ac4",
"#F c #aca6cc",
"#G c #4c4a9c",
"#H c #9472d4",
"#I c #3c4aa4",
"#J c #6c82cc",
"#K c #6c66a4",
"#L c #9499dc",
"#M c #8c86b4",
"#N c #9c90dc",
"#O c #7498e4",
"#P c #c4d2f4",
"#Q c #3444a4",
"#R c #5468c4",
"#S c #a4baec",
"#T c #343a9c",
"#U c #9c7ad4",
"#V c #5444bc",
"#W c #643bbc",
"#X c #dce2f4",
"#Y c #fcfafc",
"#Z c #4c4dbc",
"#0 c #7c72cc",
"#1 c #bca6e4",
"#2 c #6c8ee4",
"#3 c #6452c4",
"#4 c #3c56bc",
"#5 c #84a4ec",
"#6 c #8c68cc",
"#7 c #6c66c4",
"#8 c #547edc",
"a` c #94aeec",
"a. c #dcd2f4",
"a# c #645a9c",
"aa c #949edc",
"ab c #bcb6d4",
"ac c #3c3e9a",
"ad c #a486dc",
"ae c #ac96dc",
"af c #5c6ec4",
"ag c #644ec4",
"ah c #6442bc",
"ai c #7442c4",
"aj c #6436bc",
"ak c #5476d4",
"al c #ac9edc",
"am c #8c92d4",
"an c #7c52c4",
"ao c #6c76cc",
"ap c #342a84",
"aq c #4456b4",
"ar c #e4eefc",
"as c #647ec8",
"at c #3456bc",
"au c #4462b9",
"av c #acc6f4",
"aw c #6472b8",
"ax c #a4aad4",
"ay c #34328f",
"az c #6c3ec1",
"aA c #344eac",
"aB c #9cbaec",
"aC c #446ac8",
"aD c #5c4ac1",
"aE c #e4e2f2",
"aF c #6c7ec8",
"aG c #6472cc",
"aH c #7c9ee9",
"aI c #3c46a1",
"aJ c #94a6da",
"aK c #3c3288",
"aL c #5c86e3",
"aM c #3c56b4",
"aN c #3c62bf",
"aO c #7462cc",
"aP c #ccdaf4",
"aQ c #949acc",
"aR c #3c3a94",
"aS c #7c72ac",
"aT c #849ad4",
"aU c #6432bc",
"aV c #648ee4",
"aW c #eceefc",
"aX c #848ec7",
"aY c #4c4ea4",
"aZ c #3c4eac",
"a0 c #44469c",
"a1 c #8caeec",
"a2 c #747ecc",
"a3 c #8c9acc",
"a4 c #8ca6dc",
"a5 c #4c46bc",
"a6 c #744ec4",
"a7 c #5c3ebc",
"a8 c #9c9ac4",
/* pixels */
"#j#j#j#j#j#j#j#j#j#j#j#j#j#j#j`S`S#j#j#j#j#j#j#j#j#j#j#j#j#j#j#j",
"#j#j#j#j#j#j#j#j#j#j#j#j#j#j`c#CaV.m#Y#j#j#j#j#j#j#j#j#j#j#j#j#j",
"#j#j#j#j#j#j#j#j#j#j#j#j#X#5#C#CaL`oaH`L#j#j#j#j#j#j#j#j#j#j#j#j",
"#j#j#j#j#j#j#j#j#j#j.L#SaV#CaL#8`NaL#CaV`WaW#j#j#j#j#j#j#j#j#j#j",
"#j#j#j#j#j#j#j#j#Y`c#O#m#2.B`.#A#A#m#C#2#maH.m`S#j#j#j#j#j#j#j#j",
"#j#j#j#j#j#j#j`La1.o#O#CaVaB.R#O`..z#2aVaVaV#Oa1`L#j#j#j#j#j#j#j",
"#j#j#j#j#j.L#A#5aH`.#2.J.z`h.B`N#8`W#OaL`h.J`.aH#5#SaW#j#j#j#j#j",
"#j#j#j#Y#Pa1#5`C#O.j.z#S#2aL`o#C#8#S#OaLaP#Y.j#OaH#5a1#P`S#j#j#j",
"#j#j`S.J`W`h`C#5.R.zaH#CaVaVaLaL#8aB#O`o#O#5.R.z.j`C`h`Wa``S#j#j",
"#j#j.XaC.o`h`G#P.J#m#m#maV#m.eaL#8.R`haL#m#m#ma``c.R`h`U.F#X#j#j",
"#j#j`p.F.F#5.R`C#O.o`.#maV#O#S`N#8.z`caL#m#O#O#O`C`GaJ.1.l.X#j#j",
"#j#j`paN`0.P`Y.5aH#O`.#m#C#m#S.B`N`W`c#OaV#O#O#O.r.r`t`D`X#X#j#j",
"#j#j.X.laN`3.g`#`Yav#2#O#C`.#S`N.B.J`W.eaV#2`casataFaa`X#`.X#j#j",
"#j#j`paM`XaTas.1.M#i`Y.BaV#O#S.B`N#S#O.z.5`U.3`1#`.kaa#y#`aE#j#j",
"#j#j.X.OaMa3#Jat.r#A`taN`f#2#S`N`N.t#C`t.T.u.faF#4.k#L.s#`aE#j#j",
"#j#j.XaZ.O#s`u.Oasa3.7.raN.M`W.B#8.eaf#R`A#Ram`i`Zao#L.s#ZaE#j#j",
"#j#j.XaIaZ.T#zaA`u.TaFaJat.r`taCau.u.n#y.n`Z.f`i`Z.##L.E#ZaE#j#j",
"#j#j.X.q#IaX#z#Qaw`3aA`n.w`qaJau#`...n.s#y.s#g#ka5.##o.Ea5aE#j#j",
"#j#jaEacaI#Eaw#Q`Ha3#QaX`IauaJ`D.s...Z.s#n#Zam.#a5.##g.E#V`8#j#j",
"#j#jaE#T.q#E.c.i`HaQ#Q.wax`jaQ.l.s#x.Z#c#wa5#N#0`v#b#N#V##aE#j#j",
"#j#jaE#paR.K.cac#v.S#IaI.T.T.Taq#Z#o#7.E.y.E#b#d#V#b#N.v##aE#j#j",
"#j#jaE`M#p`7`F`ra0.q`Q#I#v.``k`m.E#x#d.EaD.paDaD##.2`d.v`z`8#j#j",
"#j#jaEap#p#K`K`F`r`g`Q#G.i`K`naI.E.4#d`4aDag`4a7aO.a`T.v.G`8#j#j",
"#j#j`8```O.A.D`E`6.6ayaRac.c`K.q.E.Y#3`4.V##.d#Nal.N`z.daU`8#j#j",
"#j#j#Y`b`5.baKap#K.x.8`waR#G#e`g`4.v.Va7a7`s.a`T`z#W.Caz#H`S#j#j",
"#j#j#j#j#.a#.b.b.0aK#f#.`M`J`7`g.Vah.G#b.a#aaz.Gazaz`2#u#j#j#j#j",
"#j#j#j#j#j#Y#F.I.b.A.6.6.A.D.8ap##a6`daea6`a`Paz`x#1#Y#j#Y#j#j#j",
"#j#j#j#j#j#Y#j#D#M.b.0.b#p.b.8.K`s.a`2aU`Pazazad#D#j#Y#j#j#j#j#j",
"#j#j#j#j#j#j#j#j#j#r`b.b.A.b.A#q#UajaUaz`P#6a.#j#j#Y#j#j#j#j#j#j",
"#j#j#j#j#j#j#j#j#j#j#jab`l.A.b``#B`P`Pan`y#Y#j#j#j#j#j#j#j#j#j#j",
"#j#j#j#j#j#j#j#j#j#j#Y#j.h`E`O.bazai.H.h#j#j#j#j#j#j#j#j#j#j#j#j",
"#j#j#j#j#j#j#j#j#j#j#j#j#j#j`8`b.U`8#j#j#j#j#j#j#j#j#j#j#j#j#j#j"
};
