/* XPM */
static char *bitcoin64_xpm[] = {
/* width height num_colors chars_per_pixel */
"    64    64      256            2",
/* colors */
"`` c #342582",
"`. c #6c93e4",
"`# c #345abc",
"`a c #745ec4",
"`b c #b4caf4",
"`c c #4c76cc",
"`d c #3441a0",
"`e c #a49ac4",
"`f c #5c40bc",
"`g c #545eac",
"`h c #dce7fa",
"`i c #747abc",
"`j c #344eac",
"`k c #5c87e4",
"`l c #84aaec",
"`m c #d4cdea",
"`n c #a4b2dc",
"`o c #3c6ac8",
"`p c #9496c4",
"`q c #947cd4",
"`r c #6476bc",
"`s c #5c6ab4",
"`t c #5c31bb",
"`u c #5c4e94",
"`v c #c4bad4",
"`w c #445cb3",
"`x c #4c4192",
"`y c #544e9c",
"`z c #d4dcf3",
"`A c #ecf6fc",
"`B c #34328c",
"`C c #746aa7",
"`D c #7487cb",
"`E c #3448a8",
"`F c #4464be",
"`G c #6c3fbe",
"`H c #a4beed",
"`I c #646cb6",
"`J c #7c9fe9",
"`K c #ece9f7",
"`L c #8c9fda",
"`M c #647fcb",
"`N c #c4d6f4",
"`O c #4450a7",
"`P c #6c88d1",
"`Q c #e4dcf4",
"`R c #4c7edc",
"`S c #645da4",
"`T c #a4aad4",
"`U c #9cb8ee",
"`V c #948dbc",
"`W c #7452c4",
"`X c #443387",
"`Y c #b4c0e4",
"`Z c #c4cdea",
"`0 c #445cbc",
"`1 c #d4e2fa",
"`2 c #7c92d4",
"`3 c #444094",
"`4 c #5c49c2",
"`5 c #847ab4",
"`6 c #9cacdb",
"`7 c #6435bc",
"`8 c #c4c6dc",
".` c #8c6dcc",
".. c #646ecc",
".# c #8460cc",
".a c #648ee4",
".b c #d4d4e6",
".c c #4c6cc4",
".d c #6479c8",
".e c #5c50c3",
".f c #4c51bc",
".g c #8486bc",
".h c #ecf0fb",
".i c #5c7fcf",
".j c #342c88",
".k c #3c56b4",
".l c #9c96c4",
".m c #44479c",
".n c #9ca0cf",
".o c #3462c4",
".p c #5462b4",
".q c #e4eefc",
".r c #3452b6",
".s c #6488d9",
".t c #5472c8",
".u c #4c4abc",
".v c #746ccc",
".w c #748ed4",
".x c #4c64bb",
".y c #6c47c4",
".z c #6472bc",
".A c #6c7fc6",
".B c #4456ae",
".C c #a488d6",
".D c #c4d2f4",
".E c #94b0ec",
".F c #6c56c4",
".G c #4c56bc",
".H c #749ae4",
".I c #3c409a",
".J c #a49ec4",
".K c #e4e8f3",
".L c #7482c9",
".M c #c4bedc",
".N c #4c5cb1",
".O c #dcdef3",
".P c #7c8ac4",
".Q c #acc6f4",
".R c #84a6ec",
".S c #6c8ed9",
".T c #6c5ec4",
".U c #b4aacc",
".V c #443a8d",
".W c #6448c3",
".X c #dcd6e4",
".Y c #5c56c4",
".Z c #7466cc",
".0 c #5c7ad4",
".1 c #b4b3d7",
".2 c #9982d4",
".3 c #5436bc",
".4 c #3c3a94",
".5 c #acc0e8",
".6 c #6c6db0",
".7 c #849ee0",
".8 c #547fdb",
"#` c #6c64a8",
"#. c #847eb4",
"## c #4c4a9c",
"#a c #b498dc",
"#b c #b4a2dc",
"#c c #fcfefc",
"#d c #846ecc",
"#e c #9c8cd8",
"#f c #d4c6ec",
"#g c #8c9ad4",
"#h c #b4c6f4",
"#i c #7c9ae4",
"#j c #b4aecc",
"#k c #442e84",
"#l c #9c9ac6",
"#m c #4c56ac",
"#n c #545bc4",
"#o c #7c7acc",
"#p c #546dc7",
"#q c #c4b6e4",
"#r c #5462c4",
"#s c #bca9e4",
"#t c #8ca6dc",
"#u c #ccdef4",
"#v c #e4e2f2",
"#w c #643abc",
"#x c #bcd2f4",
"#y c #ac9adc",
"#z c #a4baec",
"#A c #9cb2e4",
"#B c #8c66cc",
"#C c #4c72cc",
"#D c #7c72cc",
"#E c #ac9edc",
"#F c #bcaee4",
"#G c #9495dc",
"#H c #4452bc",
"#I c #8476cc",
"#J c #5c82e3",
"#K c #9c92dc",
"#L c #7492d8",
"#M c #5478d6",
"#N c #3c338b",
"#O c #7c6ea4",
"#P c #3c48a2",
"#Q c #cccde3",
"#R c #ccc2e4",
"#S c #7c7ec8",
"#T c #bcb6d4",
"#U c #544690",
"#V c #9ca6d4",
"#W c #a48edc",
"#X c #dce2f4",
"#Y c #ccd2ea",
"#Z c #ccbeec",
"#0 c #bcc6e4",
"#1 c #3c5cba",
"#2 c #7c5ccc",
"#3 c #7c76b4",
"#4 c #3c50ab",
"#5 c #446bc6",
"#6 c #6c78bb",
"#7 c #7442c4",
"#8 c #f4eafc",
"a` c #949edc",
"a. c #ccd8ee",
"a# c #6c5c9c",
"aa c #bcbfdf",
"ab c #4c5cc1",
"ac c #6c78cc",
"ad c #644fc4",
"ae c #5451bf",
"af c #f4f2f9",
"ag c #3c2d84",
"ah c #3c63c1",
"ai c #5c66ac",
"aj c #5c5ac4",
"ak c #5c6ec4",
"al c #ccb8e8",
"am c #bccdf4",
"an c #4c7adc",
"ao c #6440bc",
"ap c #8cabec",
"aq c #9c7dd4",
"ar c #645294",
"as c #f4f7fc",
"at c #746eb4",
"au c #7488d4",
"av c #7c53c4",
"aw c #44429c",
"ax c #9caee4",
"ay c #946acc",
"az c #6c71cc",
"aA c #8c62cc",
"aB c #d4d6f4",
"aC c #4c6ecc",
"aD c #8c8abc",
"aE c #444aa4",
"aF c #648ae4",
"aG c #5448bc",
"aH c #4c64c4",
"aI c #744ac4",
"aJ c #6c82d4",
"aK c #e4eafc",
"aL c #7c86d4",
"aM c #dcd5f4",
"aN c #7c64cc",
"aO c #5c38bc",
"aP c #acc1f4",
"aQ c #84a2ec",
"aR c #5482e4",
"aS c #8c82b4",
"aT c #7496e4",
"aU c #3c3694",
"aV c #bcb2e4",
"aW c #acaacc",
"aX c #8492d0",
"aY c #3c52b6",
"aZ c #5c72c4",
"a0 c #6c72b4",
"a1 c #5456c3",
"a2 c #4c3a8c",
"a3 c #949adc",
"a4 c #ece2f4",
"a5 c #6c3abd",
"a6 c #4456bc",
"a7 c #c4beec",
"a8 c #6c8ee4",
/* pixels */
"#c#c#c#c#c#c#c#c#c#c#c#c#c#c#c#c#c#c#c#c#c#c#c#c#c#c#c#c#c#c#c#c#c#c#c#c#c#c#c#c#c#c#c#c#c#c#c#c#c#c#c#c#c#c#c#c#c#c#c#c#c#c#c#c",
"#c#c#c#c#c#c#c#c#c#c#c#c#c#c#c#c#c#c#c#c#c#c#c#c#c#c#c#c#c#c#c`h#X#c#c#c#c#c#c#c#c#c#c#c#c#c#c#c#c#c#c#c#c#c#c#c#c#c#c#c#c#c#c#c",
"#c#c#c#c#c#c#c#c#c#c#c#c#c#c#c#c#c#c#c#c#c#c#c#c#c#c#c#c#caKap#M`R`J`h#c#c#c#c#c#c#c#c#c#c#c#c#c#c#c#c#c#c#c#c#c#c#c#c#c#c#c#c#c",
"#c#c#c#c#c#c#c#c#c#c#c#c#c#c#c#c#c#c#c#c#c#c#c#c#c#c#casaPa8`k`kaF`kaF#zas#c#c#c#c#c#c#c#c#c#c#c#c#c#c#c#c#c#c#c#c#c#c#c#c#c#c#c",
"#c#c#c#c#c#c#c#c#c#c#c#c#c#c#c#c#c#c#c#c#c#c#c#c#c#ca.aTaF`k`k`k`k`k`kaF`.am#c#c#c#c#c#c#c#c#c#c#c#c#c#c#c#c#c#c#c#c#c#c#c#c#c#c",
"#c#c#c#c#c#c#c#c#c#c#c#c#c#c#c#c#c#c#c#c#c#c#c#c.KapaFaF`k.s`k`k#J`k`k`k.s.aaQ#X#c#c#c#c#c#c#c#c#c#c#c#c#c#c#c#c#c#c#c#c#c#c#c#c",
"#c#c#c#c#c#c#c#c#c#c#c#c#c#c#c#c#c#c#c#c#c#cas`Ha8.aaFaF`kaF`k`k`k`k`k.s`k.aaF.a#z.h#c#c#c#c#c#c#c#c#c#c#c#c#c#c#c#c#c#c#c#c#c#c",
"#c#c#c#c#c#c#c#c#c#c#c#c#c#c#c#c#c#c#c#c#c`Z.H`.a8.a.aaF`kaF`k.8an`k.s`k.aaF.aa8.aaTamas#c#c#c#c#c#c#c#c#c#c#c#c#c#c#c#c#c#c#c#c",
"#c#c#c#c#c#c#c#c#c#c#c#c#c#c#c#c#c#c#c#Xap`.`.`..a.a.aaF.aaRaR#z.5#JaR`k.s`k.a.a`.`.`.ap`z#c#c#c#c#c#c#c#c#c#c#c#c#c#c#c#c#c#c#c",
"#c#c#c#c#c#c#c#c#c#c#c#c#c#c#c#c#c.h#zaTaT`.aTa8a8.aa8`kaRaQ.K`1#u.KapaR.aaF.aa8`.`.`.aTaT`UaK#c#c#c#c#c#c#c#c#c#c#c#c#c#c#c#c#c",
"#c#c#c#c#c#c#c#c#c#c#c#c#c#c#c#cam`J.H.HaT`.`.`.a8.aaRaTa..h`U.8.8ap.ham`k.a.a.a`.`.`.aT.H.H`J`bas#c#c#c#c#c#c#c#c#c#c#c#c#c#c#c",
"#c#c#c#c#c#c#c#c#c#c#c#c#c#c`zap`J`J#i.HaT`.`.`.`k.a#h.h`b.s`R`k`kan.H.K.a.s.a.aa8`.`.aTaT.H`J`Jap#u#c#c#c#c#c#c#c#c#c#c#c#c#c#c",
"#c#c#c#c#c#c#c#c#c#c#c#c.h#z.R`J`J#i.HaT`..H.aaF.E.q`z`J.8`kaF`k`k#JaT`h.aaF.aa8.aa8`.`..H.H#i`J.7aQ`UaK#c#c#c#c#c#c#c#c#c#c#c#c",
"#c#c#c#c#c#c#c#c#c#casamapaQ.R`J`J.H.H.HaTaFaQ`1.q.E`k`kaF`k`k`k#JaR.H`h.s.a.a.aaT#uaKapaT.H`J`J`JaQaQap#has#c#c#c#c#c#c#c#c#c#c",
"#c#c#c#c#c#c#c#c#c`z.Eap.R.RaQ`J`J`J#i.a.H#x`A#h.a`kaFaF`k.s`k`k`k.8.H.K.aaF.a`k.5#c#c#u.a.H`J`J`JaQ.R.Rap.Ea.#c#c#c#c#c#c#c#c#c",
"#c#c#c#c#c#c#caKaPapapap.RaQaQ`J`JaT`.aP`A#u#i`ka8a8.aaF`kaF`k`k`kaRaT`h.aaF.aaF.E#c#cas#haT`.`J`JaQ.R.Rapapap`H.K#c#c#c#c#c#c#c",
"#c#c#c#c#c#cam.E.E.Eapap.R.R.R`JaT.E.q`h.EaFa8`.a8.aaFaF`k.s`k`k.i#J.H.KaFaF.a.a.a.E#zap`h.q`U.H`JaQ.R.Rapap.E.E.Eamas#c#c#c#c#c",
"#c#c#c#c#c.5#i`U.Eapapap#t.R.Hap#u.h.Q`.a8aT`.`..a.aaF.a`k`k`k`k`kaRaTaK.a`k.a.S`..a.a`.`.#z.h`1ap.H.R#tapapap.E`UaQax#c#c#c#c#c",
"#c#c#c#c#c#Aah.sap`Uapap`JaQam.h`NaQ`..HaT`.`.`..aa8aF`k#h.H#J`k`k.8aTas.R`k.a.aa8`.`.aT.H`.`Jamas.D.R`Japap.Eap`Pah.7#c#c#c#c#c",
"#c#c#c#c#c#A`o#5#C.Sap.RaP.q`h.EaT.H#i.HaT`.`.a8a8.a.a`k#XaQ.8`k`k#J`.#c#x#J.aa8`.`.`.aTaT.H#i`.ap`1.h.Qapap#L.c`Fah`L#c#c#c#c#c",
"#c#c#c#c#c`n`o#C#C`o`c.Das.Q#i`J`J`J.HaT`.`.`.`..a.aaF`k`1aQ.8`k`k.8aTas.h`..s.a`.`.`.aT.H.H`J`J`J.HaP.ha..tah`F.c`F`L#c#c#c#c#c",
"#c#c#c#c#c#AahaC#5#C#5a.`J.S`l`J`J.H.H.HaT`.`.`.a8.a.a.s`1aQaR.s`k.8.H`h`h`U`k`..a`.`.aTaT.H`J`J`Jap`.#L#X#5aH#5aH`0`L#c#c#c#c#c",
"#c#c#c#c#c`n#1.c#5.c#5a..S`o.s`J`J`J#i.HaT`.`.`.a8.a.a`k`1aQ.8`k`kaR#i`z`H`1`ka8`.`.`.aT.H.H.H`J`J.s`F.0#X.c.x.xaH`0`L#c#c#c#c#c",
"#c#c#c#c#caxah.c#5#5`Fa.#Lah#5`c.S.HaT`..H`.`.`..aa8aF`k`1aQ.8`k.saR.H`h`..h`J.s`.`.`.aTaTaT`Ja8aC`F`0`M.O.x`FaHaH`0#g#c#c#c#c#c",
"#c#c#c#c#c`6#1.x#5.x#5a..wah#C#5#5#J#uaQ`.aT`.a8a8.a.aaF`1aQ.8`k`k.8.H.KaRa.`b`k`.`.`.`.`J`1`P#1aHaH`F.d#XaHaHabaH`0a3#c#c#c#c#c",
"#c#c#c#c#c`6#1.x`F`F`Fa..wah.c#5#5.i#c`HaFaT`.`..a.aaF`k`1aQ.8.s`kaRaTaK`k#taK.aa8`..HaF.D#c`M`0aHaH`0.d#X#rab.x#ra6a3#c#c#c#c#c",
"#c#c#c#c#c`6.k.x`F.x`Fa.`Dah#5.cah.i#c#X#C#J`.`..aa8.a`k`1aQaR`k`kaRaT`haF`k`h.EaF`.#M`2aK#Xau`0aHaH`0ac#XaHabab#r.G#g#c#c#c#c#c",
"#c#c#c#c#c`6.k.x`w`F`wa.`P#1.x#5`F.i`z#X`L.o`caFa8.a.aaF`zaQ.8`k.saR.H.K.aaR#ha..8#p`F.K#g`Zaua6aH.x`0ac.O#rab#n.pa6#G#c#c#c#c#c",
"#c#c#c#c#c#V#4`F`w`w`wa.`D#1`F.xah`Ma.#t`z#5#5#5#MaF.a`k`1aQ.8`k`k.8aT`h.aaFaTaKaZ.r`Y#YaYaB.L`0ab#n`0ac.O#nabab#n.G#G#c#c#c#c#c",
"#c#c#c#c#c`6#4.N`w`w`wa..L.k.x`F#1`M#X.c`h`2ah.c#5#5.8`k`1aQ.8.s`kaRaT.KaF#M#1`Z`L.dafaka6`z.La6#rab.Gac.O.p#n#n#n.fa3#c#c#c#c#c",
"#c#c#c#c#c#V#4.N.B`w.B#Y.A.k`F.x#1`r`h#1`6#Y#1#5#5#5#5.c`z.RaR`k`k.i.H`h#p.xa6aXa.aBa`aYabaBaJ.Gab#na6az.O#na1#n#n.f#G#c#c#c#c#c",
"#c#c#c#c#c.n#P`w.B`w`Oa..L#4`w`w#1`r#X.x#p.h`Mah.c#5.caha.#L#M`k`k.8aJ.O.xabaHabaK#Ya6#rabaB#S#H#n#n.Gaz#X#na1a1aj.f#G#c#c#c#c#c",
"#c#c#c#c#c#V#P#m.B.B#4a..A#4.N`w`waZ#X.x.r`Y#0`#.x`F#5`Fa..wah#M#M`0`r#XaHabaHabaL..ab#nabaB.L.f#n#n.faz.Oaja1a1a1aG#G#c#c#c#c#c",
"#c#c#c#c#c.n#P.B`O`O`O#Y`i#4`w`w.k.z#X.x.k`r.h.t`F`F.x`Fa.`Pah#5.x`0ac.OaHab#naba6.G#nab.GaB#S.f#na1aeaz.O.Yaea1.YaG`p#c#c#c#c#c",
"#c#c#c#c#c.n#P`O`O`O#4#Y.A#4.B#m#4.z.O`w`w.r`Z`n.r.x`F`Fa.`Dah.cabab..#X#nab#nab#n#n#n#n.faB#o.fa1a1aeaz`Qajae.e.YaG#G#c#c#c#c#c",
"#c#c#c#c#c.n.I`O`O`OaE#Y`i#P.B.B#4aZ#X.N`w.k`D.K.x`w`F`wa.`P#1.x.x.G`r.O#nab#n`g#n#na1a1a1aB#o.u.Ya1aG.v.O.eae.e.YaG#K#c#c#c#c#c",
"#c#c#c#c#c.n.I`OaEaE#P#Y#6#P`O.B#4`I.O.B.B.B.k.b`L#4`F`wa..L#1`F#n.Gac.O#n#n#na1a1a1a1a1aeaB#o.u.Ya1aGaz.O.e.e.e.eaG#e#c#c#c#c#c",
"#c#c#c#c#c.n.4aEaEaE#P.b#6.I`O`O#P`I#X.N.B.N`jaX#X.k`w`w#Y`P.k.xab.Gaz.O#na1a1a1a1a1a1a1ae.b#o.u.e.eae.v.O.e.e.e.eaG#e#c#c#c#c#c",
"#c#c#c#c#c#l.4aE.m.m.I#Ya0.I`O`O#P`s.O.B`O.B.B.B#v.P#4`w#Y.A.k`F`g.faz.O#na1a1a1a1ae.Yaeae.b#oaG.e.eaG.v`Q.e`4`4ad`f`V#c#c#c#c#c",
"#c#c#c#c#c.n`B.m.m.m.I.ba0.I`O`O#Pai.O#m`O`O.B`d#V#Y#4.Ba.`i.k`w#n.faz.O.Ya1a1ae.Yae.e.eae.b#IaG.e.eaG.Z.Oad`4`yad`f#e#c#c#c#c#c",
"#c#c#c#c#c#laU.m`3`3.I#Qa0.I.maE#Pai.b`O`O`O`O`O.N.h`r`E.b.A#4.N#nae.v.O.Yae.e#m.e.eae.eaG`m#DaG.e`4`4.Z`Q.e.W.W`4`f#e#c#c#c#c#c",
"#c#c#c#c#c#l`B`3`3`3.I#Q.6.I.m.m.maE`S#P`O`O`O`O`d.1#0`da..A#4`wa1ae.v.O.eae.Y.e.e.e`y.e.e.T.e`4`4ad`f.Z`Q.W`4.W.W`f#e#c#c#c#c#c",
"#c#c#c#c#c.l#N`3`3`3.4#Qat.4.m`3.m#P.I.m.m.m`O`O#Pai.h`g#Q#6#4#maeaGaz.X.Yae.e.e.e.e.e`4.e`4`4.W`4`4`4aN.Xad`4.W.W`f#e#c#c#c#c#c",
"#c#c#c#c#c.l.j`3.V.I.4`mai`B.m`3.I.m.m.m.m.m.m`O`O`d`8`T#0`i#P.Ba1aG.v.O.e.e.e`y`4`4.e`4.W`4`4`4.Wad`f.F`Q.Wao.W.WaO#e#c#c#c#c#c",
"#c#c#c#c#c.lag.V.V`X#N#Q#T`3`B`3.m`3.m#P.m#P.m.m`O.I#6.K.X#6#P`O.eaG.v.O.e.e`4.e`4ad`4`4`4.W.Wad.W.3`faV`Q.Waoao.W#w.2#c#c#c#c#c",
"#c#c#c#c#c.l.j`X.V.4#N`yaa.K.g#N`B.m`3`3`3.m.m.m.m.m#P`8#c`I#P`O.eaGat.Oad`4`4.W`4`4.W.W`4.Wad`f.3.2#v`m`aaoaoao.yaO.C#c#c#c#c#c",
"#c#c#c#c#c.l``.V`X`X.V#N.j`C.X.b#`.j.4.m`3.I.m.I.m.m.4#.#c`I#P`O.eaG.ZaM`4`4.W.e.W`4.W`4.WaG`taN`m#v`qaOaO`Gaoao`G#w.C#c#c#c#c#c",
"#c#c#c#c#c`V``a2#N`X#N`X.V.j#N`p.K#T##.j`3`3.4.m`3.m#P.m.Oa0.I`O`4`4ad.Fad`4.WaG.W.W.W.WaO.y#T`K#EaoaOao.yao`Gao.y`7.2#c#c#c#c#c",
"#c#c#c#c#c#R`X`X#k`X#N`X`X.V#N```x.1.K`paU.m`x.4`3`3.m.4#Q.6`d.m`4`4`4`4.W`4.W.W.W.WaOaO`V`K#Z`W`tao`Gao`Gao`G`G`Ga5al#c#c#c#c#c",
"#c#c#c#c#c#c`KaSag`X`X#N#N`X#N.V#N```S.b.b.X#X`S.4`3`3.I#Y.6.4.m`4.W.W.W.Wao.W.W`f`t#d.X`Q.``taO.yaoao`G`G`Ga5a5aq#v#c#c#c#c#c#c",
"#c#c#c#c#c#c#c#c`ma#ag#k`X#N`X`X#N.V.j```8#c#caW.j`3`3.4#Q.6.4.maG.W.W`f.W.Wao.3`W.M`K#WaOaO`G`Gao`Ga5`G#wa5.#`m#c#c#c#c#c#c#c#c",
"#c#c#c#c#c#c#c#c#c#c#j#U#k#kag`X#N`X.V``#.#c#c#3`B`3`3.4#Q.6#N.mao.Wao.W.WaOao#y`K#F.y`t`G`Gao`G`G`Ga5a5aI#s#c#c#c#c#c#c#c#c#c#c",
"#c#c#c#c#c#c#c#c#c#c#caf`V`X`X#k`Xag`X`X#N#`a##N.V#N.V#N#Q`C`B`3.W.W.W#w`t`q`Q`m.#`tao`G`G`G`Ga5a5a5`G.C#8#c#c#c#c#c#c#c#c#c#c#c",
"#c#c#c#c#c#c#c#c#c#c#c#c#c.X#Oagag`Xag`X#Nag.j`X`X.V.V#N#Q`S.j`x.Wao`t#2#Q#vaq`t#w`G`G`G#wa5`Ga5a5.`aM#c#c#c#c#c#c#c#c#c#c#c#c#c",
"#c#c#c#c#c#c#c#c#c#c#c#c#c#c#c`8ar#kag`Xag#k`X#N`X#N.Vag#Q`8`3.j.3`G.U`K#b`G`t`G`G`Ga5a5`Ga5a5aval#c#c#c#c#c#c#c#c#c#c#c#c#c#c#c",
"#c#c#c#c#c#c#c#c#c#c#c#c#c#c#c#caf.Ja2#k#kag`Xag`X#N`X#N`x#j.haS.2`K#Rav`ta5`G`Ga5#wa5a5a5#7#yaf#c#c#c#c#c#c#c#c#c#c#c#c#c#c#c#c",
"#c#c#c#c#c#c#c#c#c#c#c#c#c#c#c#c#c#ca4#.`Xag`X#kag`Xag`X#N```S.b`Q.``t`7`Ga5a5a5a5`Ga5a5aq`Q#c#c#c#c#c#c#c#c#c#c#c#c#c#c#c#c#c#c",
"#c#c#c#c#c#c#c#c#c#c#c#c#c#c#c#c#c#c#c#c#Qa#ag#k`Xag`Xag`X`X``ag#w`t#7a5a5a5a5a5a5a5.##f#c#c#c#c#c#c#c#c#c#c#c#c#c#c#c#c#c#c#c#c",
"#c#c#c#c#c#c#c#c#c#c#c#c#c#c#c#c#c#c#c#c#c#c.U#Uag#k#kag#kag`X`Xa5`Ga5a5a5a5a5a5aI#sas#c#c#c#c#c#c#c#c#c#c#c#c#c#c#c#c#c#c#c#c#c",
"#c#c#c#c#c#c#c#c#c#c#c#c#c#c#c#c#c#c#c#c#c#c#c#8`V`Xag`X#kag`X`X#wa5a5a5a5a5`G.C#8#c#c#c#c#c#c#c#c#c#c#c#c#c#c#c#c#c#c#c#c#c#c#c",
"#c#c#c#c#c#c#c#c#c#c#c#c#c#c#c#c#c#c#c#c#c#c#c#c#c.X`C#kag`Xag#k#wa5a5a5a5.``m#c#c#c#c#c#c#c#c#c#c#c#c#c#c#c#c#c#c#c#c#c#c#c#c#c",
"#c#c#c#c#c#c#c#c#c#c#c#c#c#c#c#c#c#c#c#c#c#c#c#c#c#c#c`v`u#kag`Xa5a5a5avalas#c#c#c#c#c#c#c#c#c#c#c#c#c#c#c#c#c#c#c#c#c#c#c#c#c#c",
"#c#c#c#c#c#c#c#c#c#c#c#c#c#c#c#c#c#c#c#c#c#c#c#c#c#c#c#cas`ea2#k#w#7#a#8#c#c#c#c#c#c#c#c#c#c#c#c#c#c#c#c#c#c#c#c#c#c#c#c#c#c#c#c",
"#c#c#c#c#c#c#c#c#c#c#c#c#c#c#c#c#c#c#c#c#c#c#c#c#c#c#c#c#c#c#v`C#B`Q#c#c#c#c#c#c#c#c#c#c#c#c#c#c#c#c#c#c#c#c#c#c#c#c#c#c#c#c#c#c"
};
